<mxfile host="app.diagrams.net" agent="Mozilla/5.0 (X11; Linux x86_64) AppleWebKit/537.36 (KHTML, like Gecko) Chrome/129.0.0.0 Safari/537.36" version="24.7.17">
  <diagram name="Page-1" id="z5X28mnAOcTSq9yH2fuz">
    <mxGraphModel dx="398" dy="221" grid="1" gridSize="10" guides="1" tooltips="1" connect="1" arrows="1" fold="1" page="1" pageScale="1" pageWidth="850" pageHeight="1100" math="0" shadow="0">
      <root>
        <mxCell id="0" />
        <mxCell id="1" parent="0" />
        <mxCell id="b6L9E0r-WEqFjsQ4pXRR-1" value="" style="rounded=1;whiteSpace=wrap;html=1;" vertex="1" parent="1">
          <mxGeometry x="360" y="270" width="120" height="210" as="geometry" />
        </mxCell>
        <mxCell id="b6L9E0r-WEqFjsQ4pXRR-2" value="&lt;font style=&quot;font-size: 9px;&quot;&gt;Artist&lt;/font&gt;" style="rounded=1;whiteSpace=wrap;html=1;" vertex="1" parent="1">
          <mxGeometry x="370" y="280" width="70" height="10" as="geometry" />
        </mxCell>
        <mxCell id="b6L9E0r-WEqFjsQ4pXRR-3" value="&lt;font style=&quot;font-size: 3px;&quot;&gt;Search_Btn&lt;/font&gt;" style="ellipse;whiteSpace=wrap;html=1;aspect=fixed;" vertex="1" parent="1">
          <mxGeometry x="450" y="275" width="20" height="20" as="geometry" />
        </mxCell>
        <mxCell id="b6L9E0r-WEqFjsQ4pXRR-4" value="&lt;font style=&quot;font-size: 10px;&quot;&gt;Current Artists&lt;/font&gt;&lt;div&gt;&lt;font style=&quot;font-size: 10px;&quot;&gt;&lt;br&gt;&lt;/font&gt;&lt;/div&gt;&lt;div&gt;&lt;font style=&quot;font-size: 10px;&quot;&gt;Artist A&lt;/font&gt;&lt;/div&gt;&lt;div&gt;&lt;font style=&quot;font-size: 10px;&quot;&gt;Artist B&lt;/font&gt;&lt;/div&gt;&lt;div&gt;&lt;font style=&quot;font-size: 10px;&quot;&gt;Artist C&lt;/font&gt;&lt;/div&gt;&lt;div&gt;&lt;font style=&quot;font-size: 10px;&quot;&gt;...&lt;/font&gt;&lt;/div&gt;" style="text;html=1;align=left;verticalAlign=middle;whiteSpace=wrap;rounded=0;" vertex="1" parent="1">
          <mxGeometry x="360" y="330" width="100" height="90" as="geometry" />
        </mxCell>
        <mxCell id="b6L9E0r-WEqFjsQ4pXRR-7" value="" style="line;strokeWidth=2;html=1;" vertex="1" parent="1">
          <mxGeometry x="360" y="450" width="120" height="10" as="geometry" />
        </mxCell>
        <mxCell id="b6L9E0r-WEqFjsQ4pXRR-8" value="&lt;font style=&quot;font-size: 5px;&quot;&gt;Artist_Btn&lt;/font&gt;" style="ellipse;whiteSpace=wrap;html=1;" vertex="1" parent="1">
          <mxGeometry x="380" y="460" width="25" height="20" as="geometry" />
        </mxCell>
        <mxCell id="b6L9E0r-WEqFjsQ4pXRR-9" value="&lt;font style=&quot;font-size: 3px;&quot;&gt;Player_Btn&lt;/font&gt;" style="ellipse;whiteSpace=wrap;html=1;" vertex="1" parent="1">
          <mxGeometry x="430" y="460" width="20" height="20" as="geometry" />
        </mxCell>
        <mxCell id="b6L9E0r-WEqFjsQ4pXRR-10" value="&lt;font style=&quot;font-size: 3px;&quot;&gt;Add_Btn&lt;/font&gt;" style="ellipse;whiteSpace=wrap;html=1;aspect=fixed;" vertex="1" parent="1">
          <mxGeometry x="380" y="300" width="20" height="20" as="geometry" />
        </mxCell>
        <mxCell id="b6L9E0r-WEqFjsQ4pXRR-11" value="&lt;font style=&quot;font-size: 3px;&quot;&gt;Cancel_Btn&lt;/font&gt;" style="ellipse;whiteSpace=wrap;html=1;aspect=fixed;" vertex="1" parent="1">
          <mxGeometry x="425" y="300" width="20" height="20" as="geometry" />
        </mxCell>
        <mxCell id="b6L9E0r-WEqFjsQ4pXRR-12" value="" style="rounded=1;whiteSpace=wrap;html=1;" vertex="1" parent="1">
          <mxGeometry x="520" y="270" width="120" height="210" as="geometry" />
        </mxCell>
        <mxCell id="b6L9E0r-WEqFjsQ4pXRR-13" value="Image" style="rounded=1;whiteSpace=wrap;html=1;" vertex="1" parent="1">
          <mxGeometry x="545" y="330" width="70" height="60" as="geometry" />
        </mxCell>
        <mxCell id="b6L9E0r-WEqFjsQ4pXRR-14" value="&lt;font style=&quot;font-size: 5px;&quot;&gt;Pause_Btn&lt;/font&gt;" style="ellipse;whiteSpace=wrap;html=1;" vertex="1" parent="1">
          <mxGeometry x="565" y="400" width="30" height="30" as="geometry" />
        </mxCell>
        <mxCell id="b6L9E0r-WEqFjsQ4pXRR-15" value="&lt;font style=&quot;font-size: 5px;&quot;&gt;Next_Btn&lt;/font&gt;" style="ellipse;whiteSpace=wrap;html=1;" vertex="1" parent="1">
          <mxGeometry x="610" y="400" width="25" height="30" as="geometry" />
        </mxCell>
        <mxCell id="b6L9E0r-WEqFjsQ4pXRR-16" value="&lt;font style=&quot;font-size: 5px;&quot;&gt;Prev_Btn&lt;/font&gt;" style="ellipse;whiteSpace=wrap;html=1;" vertex="1" parent="1">
          <mxGeometry x="530" y="400" width="25" height="30" as="geometry" />
        </mxCell>
        <mxCell id="b6L9E0r-WEqFjsQ4pXRR-17" value="Song Name&lt;br&gt;&lt;font style=&quot;font-size: 9px;&quot;&gt;Artist&lt;/font&gt;" style="text;html=1;align=center;verticalAlign=middle;whiteSpace=wrap;rounded=0;" vertex="1" parent="1">
          <mxGeometry x="540" y="290" width="80" height="30" as="geometry" />
        </mxCell>
        <mxCell id="b6L9E0r-WEqFjsQ4pXRR-18" value="" style="line;strokeWidth=2;html=1;" vertex="1" parent="1">
          <mxGeometry x="520" y="450" width="120" height="10" as="geometry" />
        </mxCell>
        <mxCell id="b6L9E0r-WEqFjsQ4pXRR-19" value="&lt;font style=&quot;font-size: 5px;&quot;&gt;Artist_Btn&lt;/font&gt;" style="ellipse;whiteSpace=wrap;html=1;" vertex="1" parent="1">
          <mxGeometry x="540" y="460" width="25" height="20" as="geometry" />
        </mxCell>
        <mxCell id="b6L9E0r-WEqFjsQ4pXRR-20" value="&lt;font style=&quot;font-size: 3px;&quot;&gt;Player_Btn&lt;/font&gt;" style="ellipse;whiteSpace=wrap;html=1;" vertex="1" parent="1">
          <mxGeometry x="595" y="460" width="20" height="20" as="geometry" />
        </mxCell>
      </root>
    </mxGraphModel>
  </diagram>
</mxfile>
